<?xml version="1.0" encoding="iso-8859-1"?>
<!-- Generator: Adobe Illustrator 28.4.1, SVG Export Plug-In . SVG Version: 6.00 Build 0)  -->
<svg version="1.1" id="Layer_1" xmlns="http://www.w3.org/2000/svg" xmlns:xlink="http://www.w3.org/1999/xlink" x="0px" y="0px"
	 viewBox="0 0 100 100" style="enable-background:new 0 0 100 100;" xml:space="preserve">
<g>
	<g>
		<path d="M34.14,20.5c-0.122-1.571,1.306-2.28,2.617-2.653c1.612-0.459,3.298-0.731,4.944-1.037
			c3.375-0.627,6.775-1.155,10.19-1.513c1.566-0.164,3.137-0.29,4.71-0.353c1.538-0.062,3.173-0.151,4.59,0.552
			c2.464,1.222,3.598,4.04,4.004,6.601c0.236,1.486,0.241,3.009,0.243,4.51c0.001,1.611,0.075,3.218-0.651,4.702
			c-1.272,2.599-3.505,4.899-5.669,6.774c-2.135,1.849-4.579,3.375-7.17,4.5c-2.425,1.053-5.02,1.767-7.289,3.156
			c-5.974,3.656-6.452,11.488-6.382,17.819c0.021,1.929,3.021,1.934,3,0c-0.039-3.488,0.134-7.191,1.229-10.533
			c1.004-3.063,3.286-4.742,6.169-5.946c2.843-1.187,5.719-2.154,8.359-3.778c2.737-1.684,5.245-3.798,7.333-6.242
			c2.066-2.42,3.851-4.958,4.041-8.221c0.198-3.381,0.163-7.199-1.08-10.391c-1.024-2.63-2.931-4.994-5.64-5.987
			c-3.253-1.193-7.391-0.44-10.736-0.057c-4.076,0.467-8.135,1.116-12.157,1.924c-3.284,0.66-7.99,1.847-7.655,6.176
			C31.289,22.412,34.29,22.428,34.14,20.5L34.14,20.5z"/>
	</g>
</g>
<g>
	<g>
		<path d="M38.62,74.674c-1.288,0.745-2.109,1.958-2.514,3.372c-0.198,0.692-0.318,1.407-0.414,2.12
			c-0.092,0.686-0.187,1.389-0.175,2.082c0.017,0.994,0.548,1.904,1.555,2.166c0.68,0.177,1.492,0.057,2.144-0.175
			c1.373-0.49,2.426-1.43,3.246-2.616c0.344-0.498,0.627-1.036,0.881-1.585c0.287-0.618,0.588-1.254,0.693-1.932
			c0.13-0.839,0.055-1.626-0.344-2.387c-0.312-0.595-0.867-1.129-1.453-1.45c-1.338-0.733-2.938-0.594-4.253,0.121
			c-0.729,0.396-1.255,0.955-1.556,1.729c-0.257,0.662-0.312,1.443-0.362,2.144c-0.05,0.691-0.078,1.459,0.171,2.117
			c0.348,0.921,1.075,1.595,2.105,1.587c0.887-0.007,1.691-0.663,2.221-1.327c0.507-0.635,0.892-1.339,1.076-2.137
			c0.176-0.763-0.235-1.66-1.048-1.845c-0.765-0.174-1.657,0.23-1.845,1.048c-0.032,0.14-0.065,0.447-0.169,0.561
			c0.019-0.048,0.039-0.095,0.058-0.143c-0.025,0.053-0.051,0.106-0.079,0.157c-0.046,0.087-0.094,0.171-0.147,0.254
			c-0.042,0.066-0.087,0.13-0.132,0.194c0.186-0.264,0.033-0.051-0.026,0.014c-0.066,0.072-0.135,0.142-0.206,0.208
			c-0.092,0.085-0.311,0.178-0.067,0.064c-0.035,0.022-0.071,0.043-0.106,0.065c0.223-0.131,0.444-0.143,0.664-0.034
			c0.26,0.073,0.409,0.139,0.548,0.382c-0.132-0.23,0.039,0.101,0.026,0.112c-0.001,0.001-0.086-0.282-0.08-0.281
			c0.024,0.001,0.017,0.392,0.015,0.11c-0.001-0.103-0.007-0.207-0.007-0.31c-0.001-0.265,0.007-0.53,0.026-0.794
			c0.007-0.096,0.018-0.192,0.025-0.288c0.032-0.465-0.057,0.286,0.02-0.174c0.033-0.197,0.064-0.396,0.115-0.589
			c0.005-0.02,0.01-0.04,0.016-0.06c0.055-0.163,0.049-0.159-0.018,0.012c0.02-0.035,0.041-0.071,0.061-0.106
			c-0.03,0.041-0.061,0.081-0.091,0.122c0.323-0.155-0.284,0.141,0.036-0.037c0.11-0.061,0.218-0.129,0.326-0.192
			c0.233-0.137,0.05-0.031-0.013-0.006c0.098-0.039,0.198-0.072,0.299-0.102c0.101-0.029,0.206-0.044,0.306-0.074
			c-0.263,0.078-0.127,0.007-0.026,0.007c0.125,0,0.249-0.001,0.375,0.002c-0.064-0.002-0.298-0.073-0.027,0.001
			c0.088,0.024,0.175,0.054,0.263,0.076c0.105,0.038,0.07,0.023-0.105-0.045c0.066,0.032,0.13,0.068,0.193,0.106
			c0.058,0.027,0.274,0.115-0.035-0.044c0.074,0.038,0.143,0.126,0.201,0.186c0.214,0.223-0.015,0.011,0.005-0.009
			c0.004-0.004,0.097,0.164,0.111,0.186c0.172,0.273-0.029-0.194-0.01-0.008c0.009,0.087,0.019,0.308,0.019,0.022
			c0,0.088,0,0.175,0,0.263c0-0.328-0.021,0.093-0.047,0.189c-0.052,0.196-0.122,0.386-0.195,0.575
			c0.118-0.303-0.045,0.096-0.061,0.131c-0.036,0.079-0.072,0.157-0.109,0.235c-0.185,0.391-0.385,0.775-0.614,1.143
			c-0.114,0.183-0.235,0.361-0.363,0.534c0.175-0.236,0.001-0.008-0.048,0.049c-0.07,0.082-0.142,0.162-0.217,0.239
			c-0.145,0.149-0.298,0.291-0.46,0.421c0.048-0.039,0.234-0.157,0.002-0.011c-0.106,0.067-0.209,0.136-0.318,0.198
			c-0.09,0.051-0.185,0.093-0.276,0.142c-0.204,0.11,0.325-0.095-0.043,0.011c-0.097,0.028-0.698,0.198-0.322,0.108
			c-0.078,0.019-0.17,0.008-0.247,0.017c-0.036,0-0.071,0-0.107,0c0.146-0.003,0.273,0.048,0.379,0.152
			c0.064,0.041,0.129,0.082,0.193,0.123c0.175,0.166,0.263,0.362,0.264,0.588c0.021-0.035,0.002-0.33,0.003-0.361
			c0.011-0.297,0.03-0.594,0.058-0.89c0.009-0.099,0.019-0.197,0.03-0.296c0.002-0.014,0.068-0.482,0.022-0.191
			c0.083-0.528,0.176-1.055,0.311-1.573c0.069-0.265,0.144-0.537,0.253-0.789c-0.106,0.244-0.006,0.023,0.019-0.017
			c0.068-0.113,0.137-0.229,0.2-0.345c0.18-0.328-0.196,0.178,0.065-0.09c0.086-0.089,0.167-0.182,0.258-0.266
			c0.06-0.056,0.123-0.111,0.187-0.162c-0.275,0.221,0.148-0.077,0.208-0.111c0.679-0.393,0.976-1.373,0.538-2.052
			C40.23,74.527,39.347,74.253,38.62,74.674L38.62,74.674z"/>
	</g>
</g>
</svg>
