<?xml version="1.0" encoding="iso-8859-1"?>
<!-- Generator: Adobe Illustrator 28.4.1, SVG Export Plug-In . SVG Version: 6.00 Build 0)  -->
<svg version="1.1" id="Layer_1" xmlns="http://www.w3.org/2000/svg" xmlns:xlink="http://www.w3.org/1999/xlink" x="0px" y="0px"
	 viewBox="0 0 100 100" style="enable-background:new 0 0 100 100;" xml:space="preserve">
<g>
	<g>
		<path d="M13.205,13.257c4.068,5.398,8.663,10.38,13.203,15.378c4.751,5.231,9.262,10.642,13.913,15.958
			c5.364,6.131,11.037,11.983,16.374,18.138c3.075,3.547,6.197,7.029,9.569,10.298c2.744,2.66,5.515,5.369,8.447,7.82
			c2.882,2.409,6.657,3.746,9.088,6.677c1.234,1.487,3.346-0.645,2.121-2.121c-2.149-2.591-5.282-3.984-7.999-5.861
			c-2.823-1.951-5.286-4.599-7.778-6.954c-3.463-3.273-6.735-6.704-9.866-10.295c-5.02-5.758-10.235-11.331-15.341-17.011
			c-4.778-5.316-9.262-10.88-14.059-16.181c-5.134-5.673-10.471-11.24-15.082-17.359C14.648,10.22,12.042,11.713,13.205,13.257
			L13.205,13.257z"/>
	</g>
</g>
<g>
	<g>
		<path d="M87.483,11.164c-6.832,4.126-12.849,9.356-18.487,14.974C63.207,31.907,57.584,37.833,51.73,43.54
			C40.737,54.258,29.241,64.418,17.987,74.856c-2.185,2.026-4.339,4.085-6.57,6.061c-2.037,1.804-4.2,3.927-6.716,5.055
			c-1.759,0.788-0.235,3.374,1.514,2.59c2.169-0.972,4.071-2.721,5.86-4.249c2.204-1.883,4.326-3.861,6.44-5.844
			c5.334-5.004,10.799-9.87,16.196-14.807c11.531-10.547,22.706-21.412,33.626-32.59c6.312-6.461,12.893-12.626,20.661-17.318
			C90.648,12.758,89.142,10.163,87.483,11.164L87.483,11.164z"/>
	</g>
</g>
</svg>
