<?xml version="1.0" encoding="UTF-8"?>
<svg id="Layer_1" data-name="Layer 1" xmlns="http://www.w3.org/2000/svg" version="1.1" viewBox="0 0 100 100">
  <defs>
    <style>
      .cls-1 {
        fill: #000;
        stroke-width: 0px;
      }
    </style>
  </defs>
  <path class="cls-1" d="M47,7.5c-.47,7.84-.02,15.75.04,23.6.05,7.29-.26,14.58-.04,21.87.15,5.06.46,10.12.73,15.17.1,1.92,3.1,1.93,3,0-.41-7.72-.93-15.45-.76-23.19.18-8.16.14-16.33-.01-24.49-.08-4.32-.21-8.63.05-12.95.12-1.93-2.88-1.92-3,0h0Z"/>
  <path class="cls-1" d="M30.63,49.05c.65,1.92,1.84,3.47,3.17,4.97,1.6,1.8,3.23,3.57,4.87,5.34,3.32,3.58,6.69,7.1,10.12,10.57.52.52,1.62.64,2.12,0,5.57-7.14,8.62-15.74,13.43-23.35,1.03-1.64-1.56-3.14-2.59-1.51-4.65,7.38-7.56,15.83-12.96,22.74h2.12c-3.2-3.24-6.35-6.52-9.46-9.85-1.55-1.67-3.09-3.34-4.61-5.03-1.28-1.41-2.7-2.82-3.32-4.67s-3.51-1.04-2.89.8h0Z"/>
  <path class="cls-1" d="M86.47,76.22c-18.57-1.75-37.23-.2-55.82.44-5.25.18-10.5.31-15.75.39-1.93.03-1.93,3.03,0,3,9.28-.15,18.56-.47,27.84-.88s18.62-.85,27.94-.74c5.27.06,10.54.3,15.79.79,1.92.18,1.91-2.82,0-3h0Z"/>
</svg>