<?xml version="1.0" encoding="UTF-8"?>
<svg id="Layer_1" data-name="Layer 1" xmlns="http://www.w3.org/2000/svg" version="1.1" viewBox="0 0 100 100">
  <defs>
    <style>
      .cls-1 {
        fill: #000;
        stroke: #000;
        stroke-miterlimit: 10;
        stroke-width: 4px;
      }
    </style>
  </defs>
  <path class="cls-1" d="M48.4,7.6c-.2-1.7,0,16.4,0,24.6,0,7.6-.3,15.2,0,22.8.2,5.3.5,10.5.8,15.8.1,2,3.2,2,3.1,0-.4-8-1-16.1-.8-24.1.2-8.5.1-17,0-25.5,0-4.5-.2-9,0-13.5.1-2-3-2-3.1,0h0Z"/>
  <path class="cls-1" d="M31.3,51.8s1.9,2.6,3.3,4.2c1.7,1.9,3.4,3.7,5.1,5.6,3.5,3.7,7,7.4,10.5,11,.5.5,1.7.7,2.2,0,5.8-7.4,9-16.4,14-24.3,1.1-1.7-1.6-3.3-2.7-1.6-4.8,7.7-12.9,25.1-13.5,23.7h2.2c0,2.2-6.6-6.8-9.8-10.3-1.6-1.7-3.2-3.5-4.8-5.2-1.3-1.5-2.9-2.9-3.5-4.9s-5.1-1-3.5,1.2l.2.3.2.3Z"/>
  <path class="cls-1" d="M89.5,79.1c-19.3-1.8-38.7-.2-58.1.5-5.5.2-10.9.3-16.4.4-2,0-2,3.2,0,3.1,9.7-.2,19.3-.5,29-.9s19.4-.9,29.1-.8c5.5,0,11,.3,16.4.8,2,.2,2-2.9,0-3.1h0Z"/>
</svg>