<?xml version="1.0" encoding="UTF-8"?>
<svg id="Layer_1" data-name="Layer 1" xmlns="http://www.w3.org/2000/svg" version="1.1" viewBox="0 0 100 100">
  <defs>
    <style>
      .cls-1 {
        fill: #000;
        stroke: #000;
        stroke-miterlimit: 10;
        stroke-width: 5px;
      }
    </style>
  </defs>
  <path class="cls-1" d="M9.2,47.9c3-2.7,5.6-5.6,8.5-8.4,3.9-3.7,8.1-7,12.2-10.4,3.3-2.8,6.6-5.5,10-8.2s7-5.2,10.2-8.1l-2.5.3c3.7,2.8,7.2,5.8,10.8,8.7,3.2,2.6,6.6,4.9,9.8,7.5,7.1,5.8,14.4,11.3,21.3,17.4,2,1.7,4.9-1.2,2.9-2.9-7-6.1-14.4-11.8-21.7-17.7-3.3-2.6-6.8-5.1-10-7.7-3.6-3-7.2-6-10.9-8.8-.7-.6-1.9-.2-2.5.3-3.2,2.9-6.8,5.4-10.2,8.1s-6.7,5.5-10,8.2c-4.1,3.4-8.3,6.7-12.2,10.4-2.9,2.7-5.5,5.7-8.5,8.4-2,1.8.9,4.7,2.9,2.9h0Z"/>
  <path class="cls-1" d="M12.3,40c1.2,15,0,30.1,1.4,45.2.3,2.6,4.4,2.6,4.1,0-1.5-15-.2-30.1-1.4-45.2-.2-2.6-4.3-2.6-4.1,0h0Z"/>
  <path class="cls-1" d="M83.7,41.5c-.2,13.7-.6,27.3-.2,41,0,2.6,4.2,2.6,4.1,0-.4-13.7,0-27.3.2-41,0-2.6-4.1-2.6-4.1,0h0Z"/>
  <path class="cls-1" d="M84.2,80.4c-6.8,0-13.5,1.1-20.3,1.3h-4.9c-.3,0-.8,0-1,0h-.5l.5.8c.2,0,0-3,0-3.3,0-4-.2-7.9-.3-11.9,0-1.4,0-3-.4-4.4-.4-1.3-1.5-2.4-2.5-3.2-1.9-1.6-4.6-1.1-7-1.1s-3.9-.2-5.7,0c-2.5.2-3.3,3.4-3.5,5.6-.2,2.7.3,5.4.4,8,0,4.3-.3,8.7-.4,13.1l2.6-2c-8.4-1.3-16.7.2-25.2,0-2.6,0-2.6,4,0,4.1,8,.2,16.1-1.3,24.1,0,1.3.2,2.6-.5,2.6-2,0-4.8.7-9.6.4-14.3,0-1.8-.3-3.7-.4-5.6,0-1.1-.7-1.8,0-2.7h-.7,6.8c.9,0,2.4-.3,3.2,0,2.2.9,1.5,4.8,1.6,6.5,0,3.5.2,7.1.3,10.6,0,1.4-.2,3.3.6,4.5s2.2,1.3,3.6,1.4c2.8.2,5.5.2,8.3,0,6-.3,12-1.2,18-1.2s2.6-4.1,0-4.1h-.2Z"/>
</svg>