<?xml version="1.0" encoding="iso-8859-1"?>
<!-- Generator: Adobe Illustrator 28.4.1, SVG Export Plug-In . SVG Version: 6.00 Build 0)  -->
<svg version="1.1" id="Layer_1" xmlns="http://www.w3.org/2000/svg" xmlns:xlink="http://www.w3.org/1999/xlink" x="0px" y="0px"
	 viewBox="0 0 100 100" style="enable-background:new 0 0 100 100;" xml:space="preserve">
<g>
	<g>
		<path d="M24.051,12.759c-4.498-2.027-8.102,4.351-8.37,8.047c-0.161,2.218,0.564,4.494,2.058,6.151
			c1.41,1.564,3.447,2.451,5.461,2.929c2.308,0.549,4.731,0.712,7.094,0.803c1.256,0.048,2.513,0.061,3.77,0.058
			c1.221-0.002,2.465,0.086,3.516-0.642c1.728-1.198,2.48-3.564,2.474-5.578c-0.007-2.195-0.832-4.292-2.113-6.049
			c-1.447-1.986-3.388-3.87-5.412-5.27c-1.135-0.785-2.343-0.918-3.688-0.947c-1.614-0.035-3.228-0.066-4.842-0.098
			c-1.931-0.039-1.931,2.961,0,3c0.941,0.019,1.883,0.038,2.824,0.057c1.012,0.021,2.126-0.092,3.125,0.079
			c0.712,0.122,1.251,0.642,1.781,1.094c0.655,0.56,1.304,1.129,1.923,1.73c2.103,2.041,4.2,4.989,3.144,8.075
			c-0.177,0.517-0.527,1.303-1.069,1.508c-0.341,0.129-0.912,0.038-1.265,0.04c-0.529,0.002-1.059,0.002-1.588-0.001
			c-1.983-0.015-3.968-0.082-5.942-0.284c-2.812-0.287-6.469-0.869-7.791-3.753c-0.714-1.559-0.594-3.395,0.084-4.943
			c0.336-0.767,0.813-1.501,1.365-2.129c0.33-0.376,1.331-1.564,1.947-1.287c0.744,0.335,1.605,0.208,2.052-0.538
			C24.972,14.173,24.788,13.091,24.051,12.759L24.051,12.759z"/>
	</g>
</g>
<g>
	<g>
		<path d="M24.444,20.278c1.93,0,1.934-3,0-3C22.514,17.278,22.511,20.278,24.444,20.278L24.444,20.278z"/>
	</g>
</g>
<g>
	<g>
		<path d="M29.778,20.611c1.93,0,1.934-3,0-3C27.847,17.611,27.844,20.611,29.778,20.611L29.778,20.611z"/>
	</g>
</g>
<g>
	<g>
		<path d="M24.774,25.134c0.143,0.001,0.284,0.005,0.427,0.015c0.079,0.006,0.535,0.036,0.147,0.006
			c0.241,0.018,0.485,0.082,0.722,0.131c0.499,0.105,0.995,0.231,1.491,0.35c1.045,0.251,2.091,0.502,3.136,0.753
			c0.762,0.183,1.661-0.24,1.845-1.048c0.176-0.771-0.232-1.649-1.048-1.845c-1.082-0.26-2.164-0.52-3.245-0.779
			c-1.141-0.274-2.293-0.573-3.474-0.584c-0.785-0.007-1.536,0.695-1.5,1.5C23.311,24.453,23.933,25.126,24.774,25.134
			L24.774,25.134z"/>
	</g>
</g>
<g>
	<g>
		<path d="M74.384,11.284c-3.271-0.537-6.345,0.313-9.427,1.363c-2.816,0.959-4.772,2.7-6.282,5.254
			c-1.375,2.325-2.161,4.965-2.567,7.622c-0.406,2.659-0.781,5.685-0.378,8.362c0.426,2.835,3.363,4.554,5.877,5.352
			c2.945,0.936,6.116,0.739,9.092,0.068c1.491-0.336,2.949-0.801,4.396-1.29c1.454-0.492,3.026-0.922,4.288-1.825
			c2.267-1.622,4.03-4.217,4.917-6.839c1.068-3.157,0.705-6.79-1.296-9.499c-2.139-2.896-5.241-5.207-7.881-7.629
			c-1.421-1.303-3.548,0.813-2.121,2.121c1.986,1.822,4.015,3.607,5.957,5.476c1.809,1.741,3.03,3.661,2.929,6.259
			c-0.094,2.413-1.299,4.667-2.9,6.425c-1.705,1.872-4.085,2.458-6.436,3.186c-2.403,0.744-4.875,1.315-7.407,1.165
			c-2.055-0.122-4.777-0.828-6.09-2.563c-0.653-0.863-0.423-2.241-0.402-3.269c0.022-1.117,0.079-2.233,0.187-3.345
			c0.211-2.174,0.652-4.375,1.489-6.4c0.896-2.167,2.365-4.536,4.622-5.453c2.613-1.061,5.794-2.117,8.639-1.65
			C75.475,14.487,76.287,11.596,74.384,11.284L74.384,11.284z"/>
	</g>
</g>
<g>
	<g>
		<path d="M63.778,24.167c1.93,0,1.934-3,0-3C61.847,21.167,61.844,24.167,63.778,24.167L63.778,24.167z"/>
	</g>
</g>
<g>
	<g>
		<path d="M73.889,24.389c1.93,0,1.934-3,0-3C71.959,21.389,71.955,24.389,73.889,24.389L73.889,24.389z"/>
	</g>
</g>
<g>
	<g>
		<path d="M64.89,31.925c0.741,0.038,1.481,0.075,2.222,0.113c0.372,0.019,0.802-0.181,1.061-0.439
			c0.26-0.26,0.456-0.687,0.439-1.061c-0.017-0.388-0.145-0.79-0.439-1.061c-0.302-0.277-0.648-0.418-1.061-0.439
			c-0.741-0.038-1.481-0.075-2.222-0.113c-0.372-0.019-0.802,0.181-1.061,0.439c-0.26,0.26-0.456,0.687-0.439,1.061
			c0.017,0.388,0.145,0.79,0.439,1.061C64.131,31.762,64.477,31.904,64.89,31.925L64.89,31.925z"/>
	</g>
</g>
<g>
	<g>
		<path d="M37.708,58.842c-2.374-2.098-5.295-3.209-8.406-3.655c-1.702-0.244-3.413-0.317-5.13-0.324
			c-1.711-0.008-3.548-0.15-5.123,0.641c-1.272,0.639-2.32,1.716-3.335,2.69c-1.061,1.018-2.08,2.103-2.88,3.343
			c-1.74,2.7-1.862,5.938-1.368,9.026c0.922,5.761,4.627,11.069,10.169,13.181c6.013,2.292,13.012-0.125,15.626-6.155
			c1.396-3.22,1.912-6.967,2.192-10.442c0.263-3.261,0.378-8.489-3.9-8.945c-1.917-0.205-1.903,2.797,0,3
			c1.042,0.111,0.961,2.637,0.98,3.344c0.038,1.434-0.073,2.869-0.262,4.29c-0.322,2.413-0.69,4.956-1.601,7.228
			c-1.91,4.762-7.129,6.583-11.83,4.937c-4.395-1.538-7.276-5.701-8.267-10.11c-0.486-2.165-0.683-4.732,0.265-6.799
			c0.949-2.07,2.875-3.823,4.604-5.255c1.173-0.971,2.317-0.966,3.778-0.972c1.581-0.007,3.167,0.002,4.741,0.16
			c2.742,0.275,5.524,1.084,7.624,2.94C37.029,62.238,39.159,60.124,37.708,58.842L37.708,58.842z"/>
	</g>
</g>
<g>
	<g>
		<path d="M23.111,64.833c1.93,0,1.934-3,0-3C21.181,61.833,21.178,64.833,23.111,64.833L23.111,64.833z"/>
	</g>
</g>
<g>
	<g>
		<path d="M31.333,63.389c1.93,0,1.934-3,0-3C29.403,60.389,29.4,63.389,31.333,63.389L31.333,63.389z"/>
	</g>
</g>
<g>
	<g>
		<path d="M23.996,73.976c-0.086-0.01-0.172-0.021-0.257-0.033c0.133,0.018,0.266,0.036,0.399,0.054
			c-0.657-0.089-1.308-0.213-1.951-0.372c-0.384-0.095-0.811-0.05-1.156,0.151c-0.311,0.182-0.608,0.539-0.689,0.896
			c-0.087,0.384-0.069,0.815,0.151,1.156c0.209,0.324,0.513,0.594,0.896,0.689c0.859,0.212,1.729,0.352,2.607,0.458
			c0.207,0.008,0.399-0.035,0.578-0.129c0.186-0.06,0.347-0.164,0.483-0.31c0.26-0.26,0.456-0.687,0.439-1.061
			c-0.017-0.388-0.145-0.79-0.439-1.061c-0.101-0.078-0.202-0.156-0.304-0.235C24.519,74.045,24.267,73.977,23.996,73.976
			L23.996,73.976z"/>
	</g>
</g>
<g>
	<g>
		<path d="M68.005,54.533c-4.772,0.93-9.69,2.455-11.613,7.397c-1.657,4.257-0.734,10.738,3.279,13.403
			c2.199,1.461,4.884,2.493,7.547,2.415c2.737-0.08,5.374-1.095,7.639-2.596c2.192-1.452,4.277-3.309,5.972-5.32
			c1.606-1.905,2.576-4.238,1.661-6.699c-1.048-2.819-3.723-4.381-6.478-5.185c-1.336-0.39-2.872-0.483-4.059-1.244
			c-1.19-0.764-2.119-1.728-3.557-2.028c-1.884-0.393-2.689,2.498-0.798,2.893c0.902,0.188,1.554,0.786,2.277,1.323
			c0.805,0.599,1.658,1.02,2.63,1.285c2,0.544,4.191,0.792,5.845,2.17c1.55,1.291,1.93,3.092,0.797,4.784
			c-1.101,1.643-2.787,3.075-4.304,4.322c-3.442,2.83-7.714,4.319-11.91,2.254c-0.929-0.457-1.941-0.926-2.615-1.741
			c-0.604-0.731-0.946-1.688-1.205-2.587c-0.511-1.774-0.655-3.696-0.198-5.498c1.163-4.589,5.822-5.66,9.89-6.453
			C70.696,57.056,69.895,54.164,68.005,54.533L68.005,54.533z"/>
	</g>
</g>
<g>
	<g>
		<path d="M66,64.5c1.93,0,1.934-3,0-3C64.07,61.5,64.066,64.5,66,64.5L66,64.5z"/>
	</g>
</g>
<g>
	<g>
		<path d="M71.111,64.611c1.93,0,1.934-3,0-3C69.181,61.611,69.178,64.611,71.111,64.611L71.111,64.611z"/>
	</g>
</g>
<g>
	<g>
		<path d="M63.847,71.907c1.577-0.432,3.17-0.803,4.776-1.114c0.772-0.149,1.284-1.116,1.048-1.845
			c-0.266-0.823-1.018-1.208-1.845-1.048c-1.606,0.311-3.199,0.683-4.776,1.114c-0.757,0.207-1.297,1.075-1.048,1.845
			C62.253,71.633,63.037,72.128,63.847,71.907L63.847,71.907z"/>
	</g>
</g>
</svg>
