<?xml version="1.0" encoding="iso-8859-1"?>
<!-- Generator: Adobe Illustrator 28.4.1, SVG Export Plug-In . SVG Version: 6.00 Build 0)  -->
<svg version="1.1" id="Layer_1" xmlns="http://www.w3.org/2000/svg" xmlns:xlink="http://www.w3.org/1999/xlink" x="0px" y="0px"
	 viewBox="0 0 100 100" style="enable-background:new 0 0 100 100;" xml:space="preserve">
<g>
	<g>
		<path d="M12.975,22.046c18.844,0.584,37.703,0.631,56.55,0.128c5.396-0.144,10.792-0.334,16.185-0.567
			c1.923-0.083,1.934-3.083,0-3c-18.836,0.811-37.693,1.086-56.544,0.81c-5.398-0.079-10.795-0.204-16.191-0.371
			C11.044,18.986,11.046,21.986,12.975,22.046L12.975,22.046z"/>
	</g>
</g>
<g>
	<g>
		<path d="M13.309,40.048c9.764-0.528,19.539-0.772,29.316-0.893c9.619-0.119,19.308-0.44,28.921-0.033
			c2.707,0.115,5.411,0.338,8.083,0.795c2.642,0.452,5.169,0.965,7.854,0.558c1.903-0.288,1.094-3.18-0.798-2.893
			c-2.336,0.354-4.688-0.313-6.981-0.677c-2.299-0.364-4.617-0.594-6.94-0.725c-4.736-0.265-9.488-0.167-14.229-0.146
			c-9.612,0.043-19.225,0.109-28.835,0.363c-5.467,0.145-10.931,0.354-16.392,0.649C11.388,37.152,11.376,40.152,13.309,40.048
			L13.309,40.048z"/>
	</g>
</g>
<g>
	<g>
		<path d="M13.089,62.398c10.114,0.086,20.229,0.171,30.343,0.257c9.921,0.084,19.842,0.245,29.756-0.256
			c5.671-0.287,11.331-0.744,16.979-1.329c1.901-0.197,1.922-3.199,0-3c-9.973,1.033-19.982,1.635-30.01,1.683
			c-9.968,0.048-19.939-0.126-29.907-0.21c-5.72-0.048-11.441-0.097-17.161-0.145C11.158,59.381,11.156,62.381,13.089,62.398
			L13.089,62.398z"/>
	</g>
</g>
<g>
	<g>
		<path d="M12.865,85.153c20.404-2.296,40.962-0.579,61.416-1.838c5.64-0.347,11.234-1.003,16.823-1.824
			c1.903-0.28,1.094-3.171-0.798-2.893c-9.946,1.461-19.917,2.064-29.965,2.192c-10.13,0.128-20.263-0.084-30.391,0.214
			c-5.708,0.168-11.41,0.51-17.086,1.148C10.968,82.367,10.946,85.369,12.865,85.153L12.865,85.153z"/>
	</g>
</g>
</svg>
