<?xml version="1.0" encoding="UTF-8"?>
<svg id="Layer_1" data-name="Layer 1" xmlns="http://www.w3.org/2000/svg" version="1.1" viewBox="0 0 100 100">
  <defs>
    <style>
      .cls-1 {
        fill: #000;
        stroke: #000;
        stroke-miterlimit: 10;
        stroke-width: 6px;
      }
    </style>
  </defs>
  <path class="cls-1" d="M44.9,5.7c0,20.3,0,40.5,0,60.8,0,5.8,0,11.6-.1,17.4,0,1.9,3,1.9,3,0,.2-20.3.2-40.5.2-60.8,0-5.8,0-11.6,0-17.4,0-1.9-3-1.9-3,0h0Z"/>
  <path class="cls-1" d="M9.9,46.5c19.7-.2,39.3-2.8,59-3.3,5.6-.2,11.2-.1,16.7.1,1.9,0,1.9-2.9,0-3-19.7-.9-39.3,1.3-59,2.5-5.6.3-11.1.6-16.7.7-1.9,0-1.9,3,0,3h0Z"/>
</svg>