<?xml version="1.0" encoding="UTF-8"?>
<svg id="Layer_1" data-name="Layer 1" xmlns="http://www.w3.org/2000/svg" version="1.1" viewBox="0 0 100 100">
  <defs>
    <style>
      .cls-1 {
        fill: #000;
        stroke-width: 0px;
      }
    </style>
  </defs>
  <path class="cls-1" d="M44.9,5.71c.08,20.26.08,40.53-.03,60.79-.03,5.81-.07,11.63-.11,17.44-.01,1.93,2.99,1.93,3,0,.15-20.26.22-40.53.19-60.79,0-5.81-.03-11.63-.05-17.44,0-1.93-3.01-1.93-3,0h0Z"/>
  <path class="cls-1" d="M9.86,46.48c19.72-.24,39.31-2.75,59.02-3.3,5.57-.15,11.15-.14,16.72.11,1.93.09,1.93-2.91,0-3-19.71-.9-39.35,1.35-59,2.53-5.57.34-11.15.58-16.73.65-1.93.02-1.93,3.02,0,3h0Z"/>
</svg>