<?xml version="1.0" encoding="UTF-8"?>
<svg id="Layer_1" data-name="Layer 1" xmlns="http://www.w3.org/2000/svg" version="1.1" viewBox="0 0 100 100">
  <defs>
    <style>
      .cls-1 {
        fill: #000;
        stroke: #000;
        stroke-miterlimit: 10;
      }
    </style>
  </defs>
  <path class="cls-1" d="M85.6,36.4c-3.2-10.8-11.1-20.6-22.8-22-6.4-.8-6.3,9.2,0,10,.2,0,.3,0,.5,0v-10c-12.9-.9-27-.2-38.5,6.3-5.5,3.1-10.4,7.1-13,13-3.7,8.3-2.1,17.6-1.3,26.4.6,6.4,10.6,6.4,10,0-.6-7-2.6-15.8.5-22.5,2-4.3,6.4-7.2,10.5-9.2,9.9-4.7,21.1-4.9,31.8-4.1,6.5.5,6.3-9.3,0-10-.2,0-.3,0-.5,0v10c-2.5-.3.4.2,1,.4,1.3.4,2.4,1,3.5,1.7,4.6,2.9,7.1,7.6,8.6,12.7,1.8,6.2,11.5,3.5,9.6-2.7h0Z"/>
  <path class="cls-1" d="M17.9,56.2c-3.2-2-5.4-4.7-8.3-7.7-4.6-4.5-11.6,2.5-7.1,7.1,1.5,1.4,2.7,3,4.2,4.5,1.8,1.9,4,3.4,6.2,4.8s5.5.5,6.8-1.8.5-5.4-1.8-6.8h0Z"/>
  <path class="cls-1" d="M19,63.9c3.5-3,6.9-5.9,10.1-9.1,4.6-4.5-2.5-11.6-7.1-7.1-3.2,3.2-6.7,6.2-10.1,9.1-2.1,1.8-1.8,5.3,0,7.1,2,2,5,1.8,7.1,0h0Z"/>
  <path class="cls-1" d="M12.5,74.1c1.2,24.8,30.2,27.4,48.9,23.6,9.3-1.9,18.8-4.9,24-13.7,5.5-9.3,3.1-21.6,2.6-31.7-.3-6.4-10.3-6.4-10,0,.4,8.1,2.3,17-.5,25-2.4,6.6-9.9,8.8-16,10.1-11.7,2.5-38.1,5-39-13.3-.3-6.4-10.3-6.4-10,0h0Z"/>
  <path class="cls-1" d="M80.1,53c3.5,2.3,7,4.5,10.4,7,2.2,1.6,5.6.3,6.8-1.8,1.5-2.5.4-5.2-1.8-6.8-3.3-2.5-6.9-4.7-10.4-7-2.2-1.5-5.5-.5-6.8,1.8-1.4,2.4-.5,5.3,1.8,6.8h0Z"/>
  <path class="cls-1" d="M78.2,46.3c-2.7,3.8-5.7,7.3-7.9,11.3-3.1,5.6,5.5,10.7,8.6,5,2.2-4,5.2-7.5,7.9-11.3,1.6-2.2.4-5.6-1.8-6.8-2.5-1.5-5.3-.4-6.8,1.8h0Z"/>
</svg>