<?xml version="1.0" encoding="UTF-8"?>
<svg id="Layer_1" data-name="Layer 1" xmlns="http://www.w3.org/2000/svg" version="1.1" viewBox="0 0 100 100">
  <defs>
    <style>
      .cls-1 {
        fill: #000;
        stroke-width: 0px;
      }
    </style>
  </defs>
  <path class="cls-1" d="M85.55,29.4c-3.23-10.77-11.06-20.56-22.78-22.03-6.38-.8-6.29,9.18,0,10,.15.02.31.03.46.05V7.42c-12.89-.94-26.97-.25-38.47,6.34-5.48,3.14-10.36,7.15-12.99,13.02-3.72,8.3-2.1,17.65-1.33,26.4.56,6.36,10.56,6.42,10,0-.61-7-2.6-15.85.47-22.46,1.99-4.27,6.39-7.23,10.54-9.2,9.9-4.68,21.09-4.88,31.78-4.1,6.48.47,6.29-9.33,0-10-.15-.02-.31-.03-.46-.05v10c-2.54-.32.39.17.99.36,1.25.4,2.41.96,3.52,1.67,4.57,2.91,7.1,7.58,8.62,12.66,1.84,6.15,11.5,3.53,9.64-2.66h0Z"/>
  <path class="cls-1" d="M17.92,49.18c-3.24-2-5.35-4.73-8.34-7.7-4.57-4.54-11.64,2.53-7.07,7.07,1.45,1.44,2.74,3.02,4.17,4.47,1.84,1.86,3.98,3.42,6.2,4.79s5.5.5,6.84-1.79.51-5.42-1.79-6.84h0Z"/>
  <path class="cls-1" d="M19.03,56.86c3.46-2.97,6.91-5.9,10.14-9.12,4.56-4.55-2.51-11.62-7.07-7.07-3.23,3.22-6.68,6.16-10.14,9.12-2.05,1.76-1.81,5.26,0,7.07,2.03,2.03,5.02,1.76,7.07,0h0Z"/>
  <path class="cls-1" d="M12.47,67.05c1.23,24.82,30.22,27.36,48.87,23.59,9.32-1.89,18.83-4.89,24.01-13.68,5.49-9.31,3.14-21.56,2.62-31.69-.33-6.4-10.33-6.44-10,0,.42,8.13,2.35,17.05-.52,25-2.38,6.59-9.86,8.8-15.96,10.13-11.66,2.54-38.11,4.99-39.02-13.35-.32-6.41-10.32-6.44-10,0h0Z"/>
  <path class="cls-1" d="M80.08,46.01c3.48,2.3,7.02,4.51,10.37,7,2.17,1.61,5.58.35,6.84-1.79,1.49-2.55.38-5.22-1.79-6.84-3.35-2.49-6.89-4.7-10.37-7-2.25-1.49-5.53-.45-6.84,1.79-1.43,2.44-.47,5.35,1.79,6.84h0Z"/>
  <path class="cls-1" d="M78.18,39.34c-2.66,3.76-5.66,7.27-7.9,11.32-3.11,5.64,5.52,10.69,8.63,5.05,2.23-4.04,5.24-7.55,7.9-11.32,1.56-2.21.39-5.56-1.79-6.84-2.5-1.46-5.28-.42-6.84,1.79h0Z"/>
</svg>