<?xml version="1.0" encoding="utf-8"?><svg version="1.1" xmlns="http://www.w3.org/2000/svg" xmlns:xlink="http://www.w3.org/1999/xlink" x="0px" y="0px" viewBox="0 0 1728 1296" style="enable-background:new 0 0 1728 1296;" xml:space="preserve">
                <g id="body">
    <path d="M956.26,405.4c18.17,36.34,26.63,55.08,33.2,75.22,5.79,17.76,14.98,47.37,15.99,50.03s7.28,22.81,9.04,28.87c6.79,23.32,12.12,35.58,16.8,51.66,3.04,10.42,6.56,33.16,8.39,43.89,4.39,25.7,8.34,54.59,8.34,74.14,0,28.21-1.51,68.69-7.94,88.98-3.03,9.55-18.03,47.22-31.6,70.96-17.37,30.41-29.2,40.58-50.42,60.16-25.8,23.81-42.4,30.08-60.43,42.97-1.41,1.01-44.39,17.09-47.83,18.25-15.56,5.25-42.86,9.29-59.67,9.89-28.6,1.01-51.28,2.03-78.62.62-16.23-.84-24.98-4.23-40.66-8.83-21.83-6.41-42.75-16.95-62.86-28.08-20.25-11.2-47.49-29.85-65.48-44.83-40.4-33.64-52.23-54.35-54.92-89.64,3.59-35.83,10.09-85.93,12.55-104.61,1.69-12.85,4.8-47.48,7.34-66.73,1.95-14.81,6.09-33.77,7.15-48.68,1-14.05,5.31-27.02,6.67-46.01,1.72-24.06,3.94-41.32.99-65.25-2.2-17.81-3.76-22.32-15.69-34.96-8.92-9.45-28.96-13.57-40.99-17.37-32.9-10.39-65.8-16.78-98.7-27.17-33.3-10.52-67.84-21.77-93.51-46.8-17.02-16.59-28.97-38.16-40.66-59.39-6.31-11.45-12.68-23.06-16.18-35.81-5.67-20.66-13.77-38.34-12.38-65.47,1.26-24.64,9.05-51.99,17.08-75.12,8.22-23.67,19.87-38.04,33.26-58.83,8.96-13.92,23.59-34.55,36.66-47.21,19.13-18.53,42.64-31.14,72.77-35.38,18.49-4.24,58.96-4.69,58.96-4.69,16.22-.81,38.54-.47,50.62.6,13.17,1.16,32.89,5.28,41.73,6.62,15.37,2.33,47.78,12.89,57.66,16.18,31.24,10.4,46.49,14.9,71.07,29.5,49.65,29.48,27.49,18.93,76.75,48.18,22.67,13.46,46.35,34.45,65.97,52.8,7.46,6.98,34.02,38.36,41.17,45.72,12.15,12.51,28.56,34.15,38.99,50.08,6.16,9.42,19.97,28.74,25.73,38.45,25.77,43.47,51.02,79.7,63.65,107.08Z" style="fill:#48c9b0; opacity: 100; stroke: #000; stroke-miterlimit: 10; stroke-width: 2px;"/>
  </g>
                <g id="body_texture">
    <path d="M491.78,846.1c-.06-7.8.82-15.6,2.63-23.18" style="fill: none; stroke:#194e49; stroke-miterlimit: 10; stroke-width: .5px;"/>
    <path d="M494.83,818.42l1.06-13.54" style="fill: none; stroke:#194e49; stroke-miterlimit: 10; stroke-width: .5px;"/>
    <path d="M497.15,799.66c1.4-8.01,2.36-16.1,2.88-24.22" style="fill: none; stroke:#194e49; stroke-miterlimit: 10; stroke-width: .5px;"/>
    <path d="M501.59,771.74c1.16-7.42,2.04-14.89,2.64-22.37" style="fill: none; stroke:#194e49; stroke-miterlimit: 10; stroke-width: .5px;"/>
    <path d="M505,744.25c-.14-8.23.78-16.47,2.72-24.47" style="fill: none; stroke:#194e49; stroke-miterlimit: 10; stroke-width: .5px;"/>
    <path d="M508.65,713.08c-.1-6.74.41-13.49,1.53-20.14" style="fill: none; stroke:#194e49; stroke-miterlimit: 10; stroke-width: .5px;"/>
    <path d="M511.29,686.52c.89-9.68,2.46-19.29,4.71-28.74" style="fill: none; stroke:#194e49; stroke-miterlimit: 10; stroke-width: .5px;"/>
    <path d="M516.64,651.99c.35-8.34,1.3-16.66,2.83-24.87" style="fill: none; stroke:#194e49; stroke-miterlimit: 10; stroke-width: .5px;"/>
    <path d="M520.96,621.55c.56-9.44,1.99-18.83,4.25-28.01" style="fill: none; stroke:#194e49; stroke-miterlimit: 10; stroke-width: .5px;"/>
    <path d="M526.09,587.3l.56-16.62" style="fill: none; stroke:#194e49; stroke-miterlimit: 10; stroke-width: .5px;"/>
    <path d="M495.66,838.65l1.04-7.42" style="fill: none; stroke:#194e49; stroke-miterlimit: 10; stroke-width: .5px;"/>
    <path d="M497.39,826.57c-.13-3.18.15-6.38.84-9.49" style="fill: none; stroke:#194e49; stroke-miterlimit: 10; stroke-width: .5px;"/>
    <path d="M498.94,810.53l.35-6.56" style="fill: none; stroke:#194e49; stroke-miterlimit: 10; stroke-width: .5px;"/>
    <path d="M501.18,797.24l1.21-6.21" style="fill: none; stroke:#194e49; stroke-miterlimit: 10; stroke-width: .5px;"/>
    <path d="M502.84,787.12l.27-5.06" style="fill: none; stroke:#194e49; stroke-miterlimit: 10; stroke-width: .5px;"/>
    <path d="M503.5,778.06l.86-5.75" style="fill: none; stroke:#194e49; stroke-miterlimit: 10; stroke-width: .5px;"/>
    <path d="M505.02,768.84c.25-2.92.71-5.83,1.4-8.68" style="fill: none; stroke:#194e49; stroke-miterlimit: 10; stroke-width: .5px;"/>
    <path d="M507.11,755.31c-.05-1.96.11-3.93.46-5.85" style="fill: none; stroke:#194e49; stroke-miterlimit: 10; stroke-width: .5px;"/>
    <path d="M508.16,744.01l.23-6.26" style="fill: none; stroke:#194e49; stroke-miterlimit: 10; stroke-width: .5px;"/>
    <path d="M509.73,732.37c-.14-1.98.14-3.98.81-5.85" style="fill: none; stroke:#194e49; stroke-miterlimit: 10; stroke-width: .5px;"/>
    <path d="M510.73,724.3l.67-6.59" style="fill: none; stroke:#194e49; stroke-miterlimit: 10; stroke-width: .5px;"/>
    <path d="M512.48,711.82l.78-8.15" style="fill: none; stroke:#194e49; stroke-miterlimit: 10; stroke-width: .5px;"/>
    <path d="M514.13,698.53c.19-2.45.57-4.89,1.16-7.28" style="fill: none; stroke:#194e49; stroke-miterlimit: 10; stroke-width: .5px;"/>
    <path d="M516.26,683.87c.13-2.31.42-4.62.87-6.89" style="fill: none; stroke:#194e49; stroke-miterlimit: 10; stroke-width: .5px;"/>
    <path d="M517.75,671.59c.29-3.31.78-6.61,1.46-9.86" style="fill: none; stroke:#194e49; stroke-miterlimit: 10; stroke-width: .5px;"/>
    <path d="M519.96,657.6c.21-2.46.62-4.91,1.21-7.31" style="fill: none; stroke:#194e49; stroke-miterlimit: 10; stroke-width: .5px;"/>
    <path d="M521.69,644.36c.09-2.23.42-4.46.98-6.62" style="fill: none; stroke:#194e49; stroke-miterlimit: 10; stroke-width: .5px;"/>
    <path d="M523.28,633.65c.43-3,.77-6.01,1.04-9.03" style="fill: none; stroke:#194e49; stroke-miterlimit: 10; stroke-width: .5px;"/>
    <path d="M524.87,620.74l1.59-9.13" style="fill: none; stroke:#194e49; stroke-miterlimit: 10; stroke-width: .5px;"/>
    <path d="M527.4,607.43c0-2.8.52-5.61,1.51-8.23" style="fill: none; stroke:#194e49; stroke-miterlimit: 10; stroke-width: .5px;"/>
    <path d="M529.81,593.48l.54-7.55" style="fill: none; stroke:#194e49; stroke-miterlimit: 10; stroke-width: .5px;"/>
    <path d="M531.35,579.51l.13-6.52" style="fill: none; stroke:#194e49; stroke-miterlimit: 10; stroke-width: .5px;"/>
    <path d="M500.81,832.66l.48-4.34" style="fill: none; stroke:#194e49; stroke-miterlimit: 10; stroke-width: .5px;"/>
    <path d="M502.62,817.86l.31-2.78" style="fill: none; stroke:#194e49; stroke-miterlimit: 10; stroke-width: .5px;"/>
    <path d="M504.23,805.53l.04-3.31" style="fill: none; stroke:#194e49; stroke-miterlimit: 10; stroke-width: .5px;"/>
    <path d="M506.6,790.63l.33-4.6" style="fill: none; stroke:#194e49; stroke-miterlimit: 10; stroke-width: .5px;"/>
    <path d="M508.84,773.57l.28-4.03" style="fill: none; stroke:#194e49; stroke-miterlimit: 10; stroke-width: .5px;"/>
    <path d="M511.09,754.98l.37-4.23" style="fill: none; stroke:#194e49; stroke-miterlimit: 10; stroke-width: .5px;"/>
    <path d="M513.62,733.01l.54-4.89" style="fill: none; stroke:#194e49; stroke-miterlimit: 10; stroke-width: .5px;"/>
    <path d="M517.1,708.62c0-1.9.18-3.8.53-5.67" style="fill: none; stroke:#194e49; stroke-miterlimit: 10; stroke-width: .5px;"/>
    <path d="M520.36,680.9l.29-3.47" style="fill: none; stroke:#194e49; stroke-miterlimit: 10; stroke-width: .5px;"/>
    <path d="M525.17,651.59l.94-6.58" style="fill: none; stroke:#194e49; stroke-miterlimit: 10; stroke-width: .5px;"/>
    <path d="M530.61,612.17l.51-3.61" style="fill: none; stroke:#194e49; stroke-miterlimit: 10; stroke-width: .5px;"/>
    <path d="M507.7,826.07l-.05-1.64" style="fill: none; stroke:#194e49; stroke-miterlimit: 10; stroke-width: .5px;"/>
    <path d="M509.37,812.56l.04-1.62" style="fill: none; stroke:#194e49; stroke-miterlimit: 10; stroke-width: .5px;"/>
    <path d="M510.86,800.1l-.11-2.12" style="fill: none; stroke:#194e49; stroke-miterlimit: 10; stroke-width: .5px;"/>
    <path d="M513.07,787.07l-.07-1.52" style="fill: none; stroke:#194e49; stroke-miterlimit: 10; stroke-width: .5px;"/>
    <path d="M514.68,774.82l.15-2.04" style="fill: none; stroke:#194e49; stroke-miterlimit: 10; stroke-width: .5px;"/>
    <path d="M515.54,763.18l.33-2.38" style="fill: none; stroke:#194e49; stroke-miterlimit: 10; stroke-width: .5px;"/>
    <path d="M517.61,749.64v-2.34" style="fill: none; stroke:#194e49; stroke-miterlimit: 10; stroke-width: .5px;"/>
    <path d="M520.33,733.34l.3-2.59" style="fill: none; stroke:#194e49; stroke-miterlimit: 10; stroke-width: .5px;"/>
    <path d="M521.87,718.99l.07-2.35" style="fill: none; stroke:#194e49; stroke-miterlimit: 10; stroke-width: .5px;"/>
    <path d="M523.24,704.46l-.06-2.33" style="fill: none; stroke:#194e49; stroke-miterlimit: 10; stroke-width: .5px;"/>
    <path d="M524.7,691.54l-.07-2.36" style="fill: none; stroke:#194e49; stroke-miterlimit: 10; stroke-width: .5px;"/>
    <path d="M527.1,676.05l.22-1.71" style="fill: none; stroke:#194e49; stroke-miterlimit: 10; stroke-width: .5px;"/>
    <path d="M529.1,662.76l.21-2.36" style="fill: none; stroke:#194e49; stroke-miterlimit: 10; stroke-width: .5px;"/>
    <path d="M531.05,651.15c.06-.98.22-1.96.48-2.91" style="fill: none; stroke:#194e49; stroke-miterlimit: 10; stroke-width: .5px;"/>
    <path d="M533.53,632.13l.17-1.38" style="fill: none; stroke:#194e49; stroke-miterlimit: 10; stroke-width: .5px;"/>
    <path d="M535.38,615.77l.07-2" style="fill: none; stroke:#194e49; stroke-miterlimit: 10; stroke-width: .5px;"/>
    <path d="M536.95,596.15l.24-2.25" style="fill: none; stroke:#194e49; stroke-miterlimit: 10; stroke-width: .5px;"/>
    <path d="M527.61,565.28c.04-8.94.33-17.88.88-26.81" style="fill: none; stroke:#194e49; stroke-miterlimit: 10; stroke-width: .5px;"/>
    <path d="M532.25,563.18l.71-13.69" style="fill: none; stroke:#194e49; stroke-miterlimit: 10; stroke-width: .5px;"/>
    <path d="M538,580.83l.39-3.27" style="fill: none; stroke:#194e49; stroke-miterlimit: 10; stroke-width: .5px;"/>
    <path d="M540.74,561.49l.39-3.79" style="fill: none; stroke:#194e49; stroke-miterlimit: 10; stroke-width: .5px;"/>
  </g>
                <g id="feet_hairy_legs">
    <path d="M523.38,529.84c-4.46,44.23-20.26,119.67-43.54,154.21-24.85,36.87-36.33,72.78-27.43,119-9.09-43.75,4.1-91.54,34.34-124.45-6.28,28.36-12.56,56.72-18.84,85.08-3.27,14.75-5.15,42.09,5.98,52.32.83-9.59,3.68-28.45,9.12-36.4-11.6,23.41-9.87,50.98-4.21,76.48,5.1,22.94,20.85,47.86,35.47,69.51-9.2-13.4-20.65-31.65-28.2-48.63,15.24,13.21,32.75,48.69,45.29,54.11-1.69-8-5.25-31.77-5.25-31.77,0,0,19.38,113.11,33.97,143.99-11-30.38-13.72-42.75-20.25-72.99,14.2,21.78,26.63,46.89,36.57,70.91-1.94-13.95-3.14-17.45-2.51-28.01-1.35,34.13,13.95,68.52,40.2,90.38-15.01-10.5-29.46-36.7-30.98-41.65,2.46,8.14,22.85,26.6,40.26,30.01-3.06-7.1-6.32-15.31-8.19-25.41,5.97,28.13,21.69,54.09,43.86,72.41-5.3-3.68-9.72-9.34-14.15-13.77,5.34,7.61,17.44,10.27,25.82,6.24,1.59,9.42-6.24,17.77-14.3,22.9-8.06,5.13-17.44,9.25-22.32,17.46s1.98,23.26,11.53,23.26c-2.91-9.09,8.3-19.85,16.96-15.41-9.33-5.38-21.59,8.51-15.7,17.52s18.04,10.56,22.01.54c1.08-2.74,3.57-19.22,9.21-19.67-4.92-.4-6.69,13.51-8.91,18.51-3.08,6.95,15.25,7.78,20.4,2.18,13-14.14-10.42-39.63,1.38-54.79,1.98-2.55,4.8-4.28,7.43-6.16,19.57-14.01,30.15-39.58,26.19-63.32.94,6.35.68,10.61.15,17.95,6.46-11.57,11.96-84.56,10.18-108.98,7.07,11.72,19.18,33.55,24.14,45.45,0,.01-32.56-77.92-59.24-85.32,5.78,17.16,19.12,37.54,27.86,43.5-45.94-42.49-48.28-141.07-25.52-210.59-7.31,25.97-14.17,61.96-14.17,88.94,0,22.05,1.73,38.66,6.73,61.03,5.34,23.88,16.35,44.59,32.47,60.72-7.18-6.96-24.27-32.61-27.08-43.88,27.59,9.05,52.48,73.5,58.68,85.17,0,0-3.98-18.49,4.72-61.13-14.82,58.68,2.45,124.44,44.19,168.27-9.75-11.23-16.72-17.89-23.25-31.35l50.25,34.44c-3.26-9.6-7.76-18.63-11.26-30.28,6.15,20.73,22.25,54.25,30.43,67.4-4.87-8.37-11.78-22.39-11.78-22.39,0,0,22.83,13.64,21.1,25.65-2.77,19.15-36.1,20.11-38.59,33.2s4.06,18.13,9.9,21.89c.77.5,1.91.96,2.5.26.26-.3.3-.72.35-1.11.96-7.51,7.12-13.12,12.88-18.03,1.61-1.37,5.83-2.09,3.77-1.63-5.9,1.32-9.82,6.49-14.31,13.34-1.53,2.33-3.74,5.29-2.71,7.88,2.62,6.64,19.86,6.01,34.47,4.8-9.35-8.1-4.52-15.35.33-22.64,5.75-8.64-9.09,9.67-5.06,17.35s15.76,9.83,22.24,4.06c16.49-14.66-13.42-42.67-3.69-62.47,23.79-20.16,49.66-41.27,41.71-80.92,1.83,18.92,2.53,30.63-11.49,51.82,30.59-17.91,16.67-29.47,39.4-51.67,15.09-14.74,28.43-29.47,43.52-44.21-9.48,29.82-16.06,47.64-43.05,63.47,28.15-15.71,35.31-35.97,44.68-66.82s9.21-63.93,4.5-95.83c2.86,17.83,3.15,37.82,3.15,53.76,30.91-41.4,43.02-94.64,51.15-145.86,5.67,45.99,7.89,89.85-10.92,122.64,23.93-31.27,19.22-143.78-14.31-206.44,11.15,14.81,14.88,35.31,19.59,53.23,6.19-29.29,12.49-64.57,6.87-93.97,11.47,21.36,17.32,46.56,11.51,69.38,8.62-39.4-9.52-83.26-43.46-105.06,11.05,8.08,24.07,19.83,30.72,31.79,1.63-31.37,1.81-59.86-10.16-89.02-3.37-8.22,41.01,46.87,34.99,72.63,2.4-18.01-7.5-33.81-20.14-55.15-5.35-9.04-20.38-23.06-23.53-29.85-11.7-25.2-20.9-55.62-30.05-85.05-1.91-6.15-16.18-67.51-56.61-149.9-24.74-50.4-61.43-99.73-86.52-135.08-13.03-18.37-72.71-81.11-121.04-121.91-29.78-25.14-192.22-123.85-264.47-132.22-183.96-21.31-234.1,84-248.23,111.57-18.02,35.14-35.22,98.5-19.98,168.04,9.94,45.37,33.93,89.3,84.88,125.52,53.82,38.26,233.52,37.91,225.34,118.97Z" style="fill:#48c9b0; stroke: #000; stroke-dasharray: 0 0 0 0 0 0 0 0 0 0 0 0; stroke-miterlimit: 10; stroke-width: 2px;"/>
  </g>
                null
                <g id="arms_w_rag">
    <path d="M621.74,727.44c-10.76-.41-21.42-3.16-31.03-8-5.36-2.7-15.99-3.78-21.98-3.78-9.78,0-3.17,13.8-5.37,7.25s-12.14-3.98-12.14-1.53c0,6.43.18,4.04-.77,11.88-.6,4.92,1.68-11.2.38-11.09-11.82,1.07-13.59,29.86-14.06,42.27-.06,1.69-.06,3.47.73,4.97,2.33,4.46,11.97,4.1,11.24,9.33-.81,5.83-2.67,8.39-.17,12.03s8.3,4.81,11.55,1.82,2.06-9.97-2.28-10.79c4.08,1.17,5.56,6.44,2.62,10.51,10.46-2.08,23.51-4.98,33.52-8.67,6.22-2.29,12.62-5.11,16.67-10.36s5.32-24.98,1.1-18.1c-8.04,13.14-19.28,17.42-30.84,14.81-11.56-2.61-20.02-16.05-15.72-27.09-1.96,5.16-1.08,11.3,1.51,16,1.43,2.58,4.19,5.34,5.77,6.72,3.05,2.68,6.03,3.86,9.41,4.45,6.13,1.08,11.59.92,17.87-2.8,5.68-3.37,13.42-11.86,12.4-14.43-.92-2.3-12.92,2.03-18.63,3.05-2.84.51-5.96.97-8.45-.49-1.64-.96-2.74-2.61-3.78-4.21-1.87-2.87-3.79-5.86-4.31-9.25s2.65-5.59,3.82-8.81c.82-2.25,4.68,5.36,6.93,3.79,2.07-1.45.19-7.99,2.57-7.14,8.39,3,20.49-.35,30.16,3.11,6.81,2.44,11.09,9.04,14.85,15.22,4.28,7.02,11.29,13.44,12.59,21.56.37,2.27,1.23,7.38,1.23,7.38,0,0-5.91.73-12.52,3.34-7.06,2.78-15.96,10.74-17.44,13.86-2.19-8.09-4.65-15.82-6.86-23.95,2.54,8.28,4.33,15.57,6.87,23.85,7.03-9.54,18.2-15.92,29.98-17.13-.56-5.35-1.96-10.36-4.14-15.28,37.6-32.53,77.26-62.93,118.66-90.45,2.28-1.52,4.65-3.11,6.03-5.48,1.14-1.96,1.49-4.25,1.83-6.49,4.42-29.36,9.72-58.6,15.9-87.64,2.33-10.95,4.92-22.2,11.39-31.34,2.48-3.51,5.54-6.72,7.1-10.72,3.58-9.19-2.17-19.99-10.65-25.03s-18.85-5.58-28.7-5.13c-10.74.49-22.42,2.47-29.56,10.51-4.76,5.35-6.73,12.57-8.18,19.58-7.76,37.46-4.64,77.11,8.87,112.9.74,1.96,1.52,4.07.99,6.1-.45,1.68-1.73,3-3.01,4.18-7.7,7.07-17.01,12.09-25.92,17.57-15.77,9.71-30.52,21.07-43.89,33.88-6.69,6.41-13.12,13.24-20.96,18.16-7.85,4.92-16.93,5.35-23.18,5.11Z" style="fill:#48c9b0; stroke: #000; stroke-miterlimit: 10; stroke-width: 2px;"/>
    <path d="M583.82,770.36c2.49,4.51.37,7.01-.18,7.88-.86,1.36-3.82,2.56-5.22,2.81-3.81.67-8.03-1.05-11.78-2.74-2.57-1.16-4.85-1.56-7.42-2.72-1.1-.49-2.4-1.09-3.39-1.79-1.18-.84-2.35-1.99-3.2-3.34-.99-1.57-1.77-3.1-2.32-4.87-.59-1.87-.56-3.89-.56-5.84,0-3.78,3.47-15.16,2.3-11.02-1.83,6.49-3.64,13.15-.82,19.27.74,1.6,1.64,3.15,2.88,4.4,2.57,2.61,6.99,3.97,10.41,5.05,1.45.46,3.01,1.36,4.42,1.9s2.66,2.03,1.45,2.96c-6.13,4.73-7.84,1.17-11.64-.19-2.38-.85-5.02-1.05-7.51-.59s-4.01,2.04-4.01,5.37" style="fill:#48c9b0; stroke: #000; stroke-miterlimit: 10; stroke-width: 2px;"/>
    <path d="M518.21,500.48c-35.8,23.74-46.05,51.91-59.8,98.83-4.93,16.83-5.22,41.7-5.22,72.12,0,8.46,3.21,26,1.02,38.37-2.65,14.92-5.1,16.63-5.93,32.77-.63,12.23,3.28,24.49,8.39,35.63,4.43,9.68,11.17,18.08,17.84,26.38,3.97,4.94,7.95,9.88,11.92,14.82,2.96,3.69,6.24,7.58,10.82,8.78s19.36-5.84,15.59-8.7c-7.64-5.79-16.04-14.02-16.04-14.02,0,0,13.67,13.16,17.65,14.71,3.49,1.36,10.87-3.83,9.67-10.38-.68-3.69-9.55-9.67-11.48-11.6.89,1.27,5.13,3.76,9.43,8.06,4.76,4.76,9.77,5.29,16.4-1.34,4.12-4.12-.74-11.2-4.67-15.51-11.01-12.06-32.85-26.2-37.9-28.93-3.78-2.05,10.51,6.55,14.11,8.9s10.39-1.67,8.08-5.29c-11.29-17.72-21.3-18.26-34.63-15.99,3.76-33.48,10.86-59.31,21.17-91.38,1.81-5.64,4.8-11.48,7.61-17.48,2.1-4.47,3.22-14.67,3.93-21.41.76-7.26,2.8-15.31,3.56-22.57.61-5.82,1.73-11.13,2-16.97.45-9.76,2.48-21.55,1.97-31.31-.83-15.96-.18-31.27-5.48-46.46Z" style="fill:#48c9b0; stroke: #000; stroke-miterlimit: 10; stroke-width: 2px;"/>
    <path d="M530.57,761.19c1.83-1.1,4.34-3.35,7.07-7.86.13-.21-.42,5.14-.67,6.45-.12.62-.2,2.73-.2,3.36,0,2.35-.23,2.82-.08,4.35.21,2.04,1.16,2.75,1.57,3.04.87.62,2.69,2.05,3.8,2.53,1.46.63,2.74,1.04,4.06,1.61s1.87,1.64,2.41,2.95c.51,1.23.22,2.15-.52,3.25-1.08,1.62-2.61,2.93-4.37,3.76-1.14.53-2.37.87-3.48,1.47-1.78.97-3.11,2.56-4.4,4.12-5.34-4.35-10.68-8.7-16.01-13.05-.67-.55-1.35-1.1-2.02-1.65-2.12-1.73-5.03-4.14-7.16-5.87,2.04.07,5.17-.03,6.62-1.47.52-.52,4.38-3.22,6.02-3.84s4.22-1.28,7.36-3.16Z" style="fill:#48c9b0; stroke: #000; stroke-miterlimit: 10; stroke-width: 2px;"/>
    <path d="M465.46,792.92c-4.45,6.02-6.28,7.86-7.93,12.98s-2.32,10.48-2.92,15.82c-.34,3.01-.66,6.05-.35,9.07.5,5.04,2.7,9.73,4.05,14.61,1.52,5.52,1.94,11.29,3.23,16.87.63,2.73,1.49,5.45,3.05,7.77s3.91,4.23,6.66,4.75c.39.07.79.12,1.16,0,1.02-.32,1.3-1.59,1.78-2.54,1.07-2.14,3.66-3.11,6.05-3.17s4.75.58,7.13.75c4.98.34,9.89-2.76,13.67-5,.92-.54,1.47-1.56,2.35-2.16,2.19-1.51,5.05-1.48,7.7-1.39-1.43-4.75-3.64-9.27-6.53-13.31-4.29-6.01-10.03-10.92-13.97-17.16-2.5-3.97-4.24-8.41-7.03-12.18-1.39-1.87-2.59-4.23-3.01-6.53-.13-.72-2.63-2.92-2.9-3.6s-3.99-5.36-7.49-9.45c-1.65-1.93-4.54-6.35-4.7-6.13Z" style="fill:#48c9b0; stroke: #000; stroke-miterlimit: 10; stroke-width: 2px;"/>
    <path d="M587.64,737.78c-1.7.66-2.75-2.41-4.12-3.62-.38-.33-.82-.69-1.33-.65-.56.05-.95.57-1.26,1.04-1.74,2.63-3.55,5.46-3.59,8.62-.05,3.88,2.56,7.23,5.04,10.22.68.82,1.39,1.67,2.32,2.18,1.48.81,3.28.67,4.96.5,7.33-.78,14.62-1.9,21.84-3.36.39-.08.79-.16,1.17-.05.81.23,1.16,1.17,1.35,2,.86,3.81.8,7.81-.16,11.6-.26,1.04-.6,2.06-.76,3.11-.69,4.58,1.88,8.93,3.42,13.3.92,2.62,1.5,5.37,1.69,8.14.11,1.62.18,3.43,1.37,4.54,1.34-2.69,2.73-5.44,4.89-7.53,2.1-2.03,4.79-3.31,7.43-4.55,4.07-1.91,8.19-3.85,12.59-4.74,1.82-.37,4-.82,4.64-2.56-.48-1.22-.65-2.54-.9-3.82-1.44-7.27-5.87-13.54-10.19-19.57-3.1-4.33-6.21-8.66-9.31-12.99-1.25-1.75-2.53-3.52-4.18-4.9s-3.75-2.35-5.9-2.21c-1.03.07-2.06.38-3.08.25-.69-.09-1.34-.39-2.01-.61-4.05-1.33-8.47.19-12.71-.23-3.12-.31-6.05-1.67-9.16-2.06-.42-.05-.86-.09-1.25.07-.71.29-1.03,1.09-1.27,1.82-.64,1.88.63,5.23-1.53,6.07Z" style="fill: aqua; stroke: #000; stroke-miterlimit: 10; stroke-width: 2px;"/>
    <path d="M537.75,755.1c-.21,4.75-.62,8.12.02,12.28.2,1.27.42,2.6,1.21,3.6,2.17,2.75,7.28,1.65,9.18,4.59.84,1.3.73,3.03.1,4.45s-1.69,2.57-2.74,3.71c-.97,1.05-1.96,2.11-3.19,2.85-1.88,1.13-2.83,1.57-4.43,3.03-.12.11-1.9,1.39-2.05,1.44-.18.06-1.26-1.06-1.41-1.18-2.74-2.18-3.89-4.01-6.66-6.22-4.42-3.52-11.32-8.59-16.6-13.32,2.38-.43,4.65-1.51,6.48-3.1.49-.42.95-.88,1.51-1.18.6-.32,1.33-.31,1.93-.63,1.85-1.01,15.29-10.53,16.44-10.53.32.04.2.22.2.22Z" style="fill: aqua; stroke: #000; stroke-miterlimit: 10; stroke-width: 2px;"/>
    <path d="M465.49,793.18c-4.15,3.48-6.14,8.14-7.99,13.24s-2.72,10.49-3.34,15.87c-.55,4.77-.88,9.76.83,14.24.76,1.99,1.41,4.33,2.08,6.36.82,2.48,1.4,4.64,1.67,7.24.81,7.63,2.82,17.46,7.61,22.25,1.23,1.23,3.72,2.29,5.45,2.49,3.71.44,3.92-5.26,7.61-5.82,1.08-.17,2.18.15,3.25.37,3.63.74,6.44,1.44,9.84,0,3.01-1.27,5.74-2.9,8.54-4.59s7.41-3.8,10.66-3.49c-3.66-8.82-7.1-14.17-14.41-22.03-.57-.61-3.6-4.72-9.24-14.33-1.7-2.9-3.72-5.25-5.11-8.31-.94-2.05-1.88-4.13-3.26-5.92-1.12-1.45-2.49-3.77-3.77-5.07-4.01-4.1-6.82-8.04-10.43-12.5Z" style="fill: aqua; stroke: #000; stroke-miterlimit: 10; stroke-width: 2px;"/>
  </g>
                null
                 <g id="mouth_simple_1">
    <path d="M308.44,417.93c2.74-2.87,5.73-5.89,9.63-6.63,4.31-.83,8.8,1.34,13.1.47,4.81-.97,8.35-5.52,13.2-6.25,2.55-.38,5.14.36,7.72.26s5.5-1.53,5.81-4.09" style="fill:#48c9b0; stroke: #000; stroke-miterlimit: 10; stroke-width: 2px;"/>
  </g>
                null
                <g id="back_wide_fanspikes">
    <path d="M733.17,119.27c48.99-.84,48.35,6.79,95.7,19.41-21.34-2.33-42.94-2.26-64.26.22,29.67,4.79,104.34,15.58,134,20.37,31.2,5.04,70.05,2.8,94.33,23.04-31.26-13.83-51.46-26.09-178.38,5.88,42.77,5.44,147.43,19.59,189.66,28.25,27.75,5.7,59.57,15.46,82.01,25.99,20.29,9.52,41.35,19.63,55.21,37.25-56.72-29.38-92.08-62.59-301.83-62.59,80.84,34.73,309.43,84.34,362.33,154.65-15.85-13.87-34.71-23.75-53.38-33.5-49.02-25.6-229.55-74.73-284.32-82.36,51.47,12.88,225.42,69.56,264.85,105.05-31.23-30.31-190.31-67.08-233.83-67.6,32.74,10.39,175.61,52.56,201.48,75.16-25.1-15.24-157.18-46.09-186.44-48.59,30.65,11.76,161.3,53.82,181,80.08-25.12-18.12-134.92-55.69-165.69-59.28,12.63,8.08,103.27,45.24,110.75,58.23-18.38-8.32-83.05-29.85-102.76-34.18,16.25,6.18,76.27,31.77,87.36,45.16-12.25-10.16-57.53-21.54-73.45-21.56,16.91,11.69,61.38,31.71,73.83,48.07-12.92-10.53-43.04-20.21-59.7-20.23,13.21,12.35,39.95,28.44,53.16,40.79-9.03-8.98-29.69-17.05-42.35-18.38,15.69,10.56,38.2,25.94,49.79,40.89-9.77-4.37-19.55-8.74-29.32-13.1-3.12-1.4-9.78-3.31-10.97-6.23-33.17-82-103.66-186.67-125.07-214.79-36.92-48.5-56.47-75.23-123.7-126.09Z" style="fill:#ff5733; stroke: #000; stroke-dasharray: 0 0 0 0 0 0 0 0 0 0 0 0; stroke-miterlimit: 10; stroke-width: 2px;"/>
  </g>
                <g id="tail_curly_lines">
    <path d="M1009.27,542.16c1.29,3.53,14.76,4.25,19.57,3.09,9.89-2.4,25.98-12.62,31.59-25.65s1.53-30.7-11.25-36.86c-2.87-1.38-6.49-2.07-9.08-.23-3.03,2.14-3.09,6.96-.9,9.95s5.95,4.42,9.62,5.01c13.73,2.21,28.4-6.56,32.96-19.7s-1.53-29.11-13.67-35.88c-3.5-1.95-8.26-3.03-11.22-.34-3.61,3.28-1.78,9.19.42,13.54,5.34,10.53,12,21.19,22.51,26.56,12.81,6.56,28.75,3.68,41.33-3.32,16.94-9.42,30.21-28.08,27.48-47.27-.14-.99-.33-2.01-.89-2.84-1.13-1.68-3.42-2.12-5.44-1.97-9.55.73-15.55,11.1-16.49,20.63-.98,9.92,1.81,20.28,8.16,27.96s16.29,12.45,26.24,11.94c8.25-.42,15.97-4.24,22.79-8.89,5.21-3.55,10.08-7.65,14.03-12.57,4.35-5.42,7.59-12.43,6.03-19.2-.24-1.04-.64-2.12-1.53-2.72-1.23-.83-2.89-.4-4.27.15-8.66,3.46-15.47,10.68-19.79,18.95-4.32,8.27-6.34,17.55-7.43,26.82-1.34,11.42-1.26,23.34,3.16,33.95,4.43,10.61,4.46,17.1,15.6,19.92,3.35.85,12.34-1.38,16.01-4.07,4.75-3.48,6.14-9.23,4.98-15.01-1.57-7.81-10.75-12.21-18.63-11.02s-14.49,6.46-20.16,12.06c-2.54,2.51-5,5.15-6.83,8.22-2.93,4.92-4.1,10.67-4.79,16.35-2.27,18.84.35,38.25,7.55,55.81,1.13,2.75,2.43,5.55,4.67,7.51,5.3,4.64,11.49,5.12,17.63,1.68,1.7-.95,5.72-5,6.27-7.65,1.52-7.34-2.17-13.78-6.7-18.64s-6.93-7.49-13.41-8.98c-3.42-.79-7.98-2.17-11.31-2.68-2.91-.45-6.83-1.14-10.15-.67-3.64.51-7.08,1.54-10.41,2.88-7.31,2.95-15,6.18-19.69,12.52-3.48,4.71-4.88,10.61-5.85,16.38-1.06,6.27-1.71,12.6-1.95,18.95-.16,4.25,0,8.91,2.81,12.12,3.91,4.47,11.47,3.86,16.15.2,4.68-3.66,7.11-9.44,9.07-15.04,2.5-7.12,4.58-14.53,4.51-22.08-.07-7.55-1.88-16.07-7.94-20.58-4.19-3.12-5.73-4.11-11.27-6.25-2.33-.9-8.12-2.11-12-2.11-2.75,0-6.97.25-13.89,2.89-2.49.95-5.88,2.61-7.95,4.29-10.14,8.25-17.85,19.44-21.95,31.85-1.31,3.98-2.04,8.95,1,11.84,2.36,2.24,6.24,2.2,9.12.67s4.93-4.22,6.69-6.97c3.25-5.07,5.82-10.58,7.61-16.34,2.07-6.66,2.88-14.53-1.38-20.05-4.32-5.6-12.19-6.73-19.25-7.17-10.45-.65-21.22-.7-31.01,2.98-2.51.94-5.79,2.25-8.05,3.37-1.95.96-14.83,7.31-11.73,15.6,4.98,13.32-2.21-5.89-4.3-12.59-4.45-14.3-17.57-53.87-12.98-41.32Z" style="fill:#ff5733; stroke: #000; stroke-dasharray: 0 0 0 0 0 0 0 0 0 0 0 0; stroke-miterlimit: 10;"/>
    <path d="M1012.89,553.54c8.97-1.51,18.08-3.06,26.3-6.96s15.59-10.52,18.28-19.21-.43-19.43-8.46-23.71c-1.08-.58-2.34-1.04-3.51-.66-1.56.5-2.29,2.25-2.7,3.83-1.15,4.42-.93,9.84,2.67,12.65,2.95,2.3,7.32,2,10.6.19s5.67-4.86,7.81-7.93c3.09-4.43,5.89-9.16,7.36-14.36,2.89-10.23.04-21.88-7.25-29.62-2.06-2.19-5.16-4.19-7.89-2.96-2.53,7.13,1.67,15.45,8.22,19.23s14.75,3.7,22.03,1.65c4.71-1.33,9.26-3.46,12.95-6.68,11.45-9.99,12.07-27.66,8.73-42.48-.17-.74-.36-1.52-.88-2.08-.73-.79-1.92-.95-2.99-.85-3.98.35-7.3,3.48-8.94,7.13s-1.89,7.75-1.97,11.74c-.16,8.18.32,16.37,1.41,24.48,1.02,7.52,3.12,15.81,9.57,19.8,7.52,4.65,17.35,1.34,25.05-3,10.27-5.79,19.59-13.26,27.47-22.03,7-7.79,13.11-17.41,12.63-27.87-.05-1-.22-2.12-1.02-2.72-.66-.5-1.57-.49-2.39-.43-15.09,1.23-26.56,16.71-26.08,31.85.48,15.14,10.89,28.75,24.11,36.13,3.08,1.72,6.41,3.18,9.94,3.41,3.33.21,6.63-.7,9.75-1.88,10.65-4.03,20-11.41,26.4-20.82,1.02-1.49,1.97-3.49.98-5-.52-.79-1.44-1.21-2.34-1.52-7.93-2.72-16.58.02-24.51,2.76-11.67,4.02-24.06,8.56-31.42,18.47-4.06,5.47-6.19,12.11-7.84,18.73-1.11,4.46-2.03,9.12-1.15,13.63.69,3.52,2.45,6.74,4.18,9.88,5.87,10.68,12.47,22.05,23.59,27.04,4.89,2.2,11.08,2.8,15.28-.53,1.84-1.45,3.12-3.52,3.95-5.72,2.94-7.75.02-17.31-6.74-22.09-7.21-5.09-16.93-4.53-25.58-2.75-6.56,1.35-13.44,3.59-17.51,8.9-2.51,3.28-3.67,7.41-4.16,11.52-1.61,13.61,3.63,27.07,9.74,39.34,1.49,2.99,3.09,6.03,5.56,8.29s6,3.63,9.21,2.7c4.53-1.31,6.7-6.41,7.72-11.01,1.55-7.02,1.76-14.59-1.08-21.19-2.8-6.5-8.23-11.44-13.5-16.17-.95-.85-1.96-1.74-3.21-2.03-1.26-.29-2.64.06-3.86-.38-1.96-.7-2.69-3-3.84-4.73-3.36-5.06-10.8-5.31-16.58-3.47-9.34,2.97-17.15,9.93-22.1,18.4s-7.17,18.34-7.41,28.14c-.11,4.48.48,9.57,4.07,12.26,3.76,2.82,9.43,1.6,12.9-1.57s5.21-7.78,6.58-12.28c3.41-11.18,5.27-23.25,2.22-34.53-.83-3.07-2.03-6.07-3.95-8.6-3.2-4.22-8.17-6.81-13.3-8.11-11.67-2.95-24.76.6-33.34,9.04s-12.33,21.48-9.56,33.19c.65,2.73,1.96,5.73,4.64,6.56,1.21.37,2.52.23,3.76-.02,11.86-2.41,19.92-14.25,21.87-26.19.76-4.67.63-9.94-2.48-13.5-4-4.58-11.08-4.47-17.09-3.5-14.47,2.35-28.46,7.6-40.9,15.36-2.99,1.87-6.06,4.08-7.31,7.37s.31,7.85,3.79,8.44c1.78.3,3.55-.46,5.18-1.23,4.83-2.31,9.63-5.01,13.13-9.06s5.56-9.69,4.16-14.87c-1.02-3.78-3.76-6.93-7.04-9.07-3.7-2.41-8.51-3.65-12.57-1.93-5.17,2.18-7.56,8.81-5.91,14.17s6.57,9.29,11.96,10.87,11.18,1.09,16.66-.14c14.99-3.37,28.75-12.5,37-25.46,3.49-5.48,6.04-11.94,5.11-18.36-.92-6.4-5.25-11.94-10.55-15.65-1.16-.81-2.38-1.56-3.69-2.12-2.56-1.09-5.37-1.43-8.14-1.77-3.94-.47-7.96-.94-11.83-.11-11.18,2.39-17.68,16.07-14.13,26.93,1.06,3.25,2.88,6.31,5.52,8.49,6.13,5.04,15.36,4.27,22.49.8,9.98-4.86,17.46-14.57,19.61-25.46,2.14-10.89-1.1-22.72-8.5-30.99-3.37-3.77-7.95-6.96-13.01-6.83-6.62.16-11.91,6-14.04,12.27-3.63,10.69.9,24.23,11.29,28.65,11.21,4.77,24.26-2.06,32.21-11.3,3.04-3.54,5.72-7.61,6.47-12.22.86-5.31-.92-10.64-2.68-15.72-.37-1.07-.79-2.21-1.71-2.87-1.08-.77-2.57-.69-3.7-1.39-2.57-1.58-2.69-6.62-5.71-6.44-.64.04-1.22.35-1.77.69-7.76,4.78-11.14,15.02-9.21,23.93s8.43,16.36,16.27,21.01c1.93,1.14,4,2.15,6.22,2.38,2.46.25,4.91-.48,7.21-1.38,17.16-6.68,29.78-23.76,31.1-42.13.08-1.07.11-2.21-.41-3.15-.66-1.2-2.05-1.79-3.06-2.73-3.54-3.27-2.74-10.78-7.47-11.71-2.58-.5-4.94,1.62-7.55,1.95-1.92.24-3.83-.51-5.76-.63-3.3-.21-6.46,1.42-9.06,3.48-9.02,7.13-12.84,19.73-10.67,31.02,1.09,5.71,3.62,11.22,7.62,15.44,7.53,7.96,19.62,10.51,30.35,8.3,18.09-3.73,32.56-21.02,32.61-39.5-2.8.45-5.24-1.92-6.76-4.31s-2.82-5.18-5.34-6.46c-2.36-1.2-5.2-.77-7.8-1.31-3.17-.67-6.06-2.82-9.29-2.63-2.23.13-4.23,1.37-6.11,2.58-5.41,3.47-10.97,7.12-14.48,12.51-4.98,7.64-5,17.47-3.69,26.5.89,6.12,2.42,12.39,6.24,17.26,8.07,10.28,24.61,10.79,35.45,3.49,5.72-3.85,10.29-9.66,11.82-16.39,1.53-6.73-.27-14.32-5.28-19.06-.73-.69-1.54-1.33-2.51-1.61-1.34-.39-2.76-.02-4.13.26-3.34.69-6.76.9-10.12,1.46-17.4,2.9-32.74,15.89-38.46,32.57-5.73,16.68-1.6,36.35,10.35,49.33,1.82,1.97,3.89,3.85,6.46,4.63,2.8.85,5.81.28,8.67-.29,3.93-.78,7.94-1.6,11.39-3.64,5.16-3.05,8.41-8.44,11.44-13.61,4.65-7.93,9.47-17.19,6.46-25.88-2.45-7.09-9.42-11.48-16.06-14.98-1.34-.71-2.73-1.41-4.24-1.58-1.82-.2-3.62.41-5.34,1.01-7.1,2.47-14.31,5-20.39,9.42-7.77,5.65-13.27,14.32-15.08,23.75-1.47,7.66.28,17,7.23,20.55,7.51,3.83,16.6-1.18,22.32-7.37,10.28-11.13,15.41-28.38,8.42-41.83-.91-1.76-2.05-3.46-3.68-4.59-1.71-1.19-3.84-1.66-5.57-2.83-3.82-2.6-5.36-8.39-9.88-9.36-3.74-.8-7.26,2.31-11.08,2.42-3.17.09-6.25-1.9-9.37-1.31-1.92.36-3.52,1.66-5.03,2.91-8.22,6.82-17.1,14.88-17.71,25.54-.39,6.85,2.85,13.41,6.91,18.93,2.69,3.65,6.02,7.16,10.4,8.33,6.87,1.83,13.89-2.71,18.47-8.15,4.87-5.77,8.29-13.4,6.81-20.81-1.12-5.56-4.82-10.23-8.8-14.27-.82-.83-1.71-1.68-2.85-1.94-1.53-.34-3.06.46-4.63.55-3.07.17-5.78-2.43-8.85-2.3-1.59.07-3.05.87-4.44,1.66-8.07,4.59-16.1,9.53-22.44,16.32s-10.86,15.73-10.57,25.01c.16,5.16,2.08,10.61,6.37,13.47,4.34,2.9,10.26,2.51,14.96.23s8.4-6.16,11.79-10.14c5.62-6.58,10.76-13.8,13.31-22.07s2.19-17.78-2.62-24.98c-.9-1.35-2.07-2.69-3.65-3.05-1.45-.34-2.94.2-4.42.3-5.09.35-9.3-4.36-14.39-4.74-3.17-.24-6.18,1.23-9.12,2.43-9.28,3.78-20.18,5.61-26.46,13.42-3.15,3.91-4.68,8.85-6.14,13.65-1.95,6.4-3.8,13.72-.33,19.44,2.92,4.82,8.8,6.96,14.35,7.93,2.19.38,4.46.63,6.6.06,2.52-.67,4.6-2.4,6.5-4.19,6.38-6.03,11.65-13.43,14.09-21.86s1.82-17.93-2.74-25.42c-.98-1.61-2.18-3.16-3.82-4.1-1.67-.96-3.65-1.2-5.57-1.41-5.62-.62-11.45-1.15-16.8.7-6.64,2.3-11.65,8.09-14.41,14.56s-3.52,13.6-3.81,20.62c-.24,5.78-.19,11.58.56,17.31.96,7.36,3.75,15.41,10.45,18.58,6.12,2.9,13.74.57,18.7-4.05s7.72-11.09,9.87-17.51c1.95-5.84,3.42-12.52.49-17.94-2.23-4.13-6.56-6.61-10.68-8.84-1.14-.62-2.32-1.24-3.6-1.36-1.35-.12-2.68.34-3.94.84-6.48,2.58-12.43,6.5-17.34,11.45-2.3,2.32-4.43,4.97-5.23,8.13s.05,6.93,2.75,8.77c4.57,3.13,10.66-.77,14.37-4.88,1.71-1.89,3.36-4.75,1.82-6.77-7.96-2.84-17.13-2.12-24.55,1.94-1.7.93-3.66,2.06-5.45,1.34-2.47,2.15-5.57,3.55-8.81,4-.53.07-1.21.28-1.2.81s1.05-.07-1.22-4.29Z" style="fill:#ff5733; stroke: #000; stroke-dasharray: 0 0 0 0 0 0 0 0 0 0 0 0; stroke-miterlimit: 10;"/>
  </g>
                null
                <g id="eyes2">
    <path d="M432.78,164.39c-2.74,2.98-4.57,7.38-3.61,11.32,1.19,4.88,7.63,6.98,12.27,5.05s7.88-5.07,9.55-9.81c2.3-6.53-2.07-10.52-5.44-11.25-5.93-1.28-9.7,1.35-12.77,4.69Z" style="fill: #000; stroke: #000; stroke-miterlimit: 10; stroke-width: 2px;"/>
    <path d="M445.95,136.9c-.68,1.13-.44,2.64.27,3.75s1.8,1.92,2.9,2.66c8.76,5.87,19.14,9.08,27.61,15.35,2.98,2.21,5.93,5.34,5.59,9.04" style="fill: none; stroke: #000; stroke-miterlimit: 10; stroke-width: 2px;"/>
  </g>
                
        </svg>
    